<?xml version="1.0" encoding="UTF-8" standalone="no"?>
<svg
   width="777"
   height="480"
   version="1.1"
   id="svg2"
   sodipodi:docname="Des_Morales_Piso02_001.svg"
   inkscape:version="1.4.4 (dcaf3e7, 2026-05-05)"
   xmlns:inkscape="http://www.inkscape.org/namespaces/inkscape"
   xmlns:sodipodi="http://sodipodi.sourceforge.net/DTD/sodipodi-0.dtd"
   xmlns="http://www.w3.org/2000/svg"
   xmlns:svg="http://www.w3.org/2000/svg">
  <defs
     id="defs2">
    <rect
       x="309.18489"
       y="213.75746"
       width="86.838967"
       height="38.170974"
       id="rect4" />
    <rect
       x="282.46521"
       y="62.982107"
       width="354.99006"
       height="24.811133"
       id="rect3" />
    <rect
       x="476.1829"
       y="218.52883"
       width="57.256461"
       height="37.2167"
       id="rect2" />
    <rect
       x="282.46521"
       y="62.982105"
       width="69.662018"
       height="41.98807"
       id="rect3-4" />
    <rect
       x="282.46521"
       y="62.982105"
       width="354.99005"
       height="24.811132"
       id="rect3-1" />
    <rect
       x="282.46521"
       y="62.982105"
       width="355.94432"
       height="34.353876"
       id="rect3-2" />
  </defs>
  <sodipodi:namedview
     id="namedview2"
     pagecolor="#ffffff"
     bordercolor="#000000"
     borderopacity="0.25"
     inkscape:showpageshadow="2"
     inkscape:pageopacity="0.0"
     inkscape:pagecheckerboard="0"
     inkscape:deskcolor="#d1d1d1"
     inkscape:zoom="1.0479167"
     inkscape:cx="388.38966"
     inkscape:cy="240"
     inkscape:window-width="1366"
     inkscape:window-height="705"
     inkscape:window-x="-8"
     inkscape:window-y="-8"
     inkscape:window-maximized="1"
     inkscape:current-layer="svg2" />
  <title
     id="title1">my vector image</title>
  <rect
     id="backgroundrect"
     width="100%"
     height="100%"
     x="0.95427436"
     y="-25.765408"
     fill="#ffffff"
     inkscape:transform-center-x="21.94831"
     inkscape:transform-center-y="-11.451292" />
  <g
     id="g5">
    <path
       id="svg_16-2-6"
       d="M 399.20922,418.39638 398.14569,177.43211"
       fill="#4a90d6"
       stroke="#222222"
       stroke-width="4.19338" />
    <path
       id="svg_9-2-7"
       d="M 259.86969,309.68415 1.1892515,310.35461"
       fill="#4a90d6"
       stroke="#222222"
       stroke-width="4.89913"
       sodipodi:nodetypes="cc" />
    <path
       id="svg_3-9-8"
       d="m 576.30127,232.48907 c 0,-5.0477 3.89564,-9.1361 8.70469,-9.1361 4.80905,0 8.70469,4.0884 8.70469,9.1361 0,5.0477 -3.89564,9.13611 -8.70469,9.13611 -4.80905,0 -8.70469,-4.08841 -8.70469,-9.13611 z"
       fill="#4a90d6"
       stroke="#222222"
       stroke-width="1.23077" />
    <path
       id="svg_3-9"
       d="m 662.32008,261.50298 c 0,-7.735 6.713,-14 15,-14 8.287,0 15,6.265 15,14 0,7.735 -6.713,14 -15,14 -8.287,0 -15,-6.265 -15,-14 z"
       fill="#4a90d6"
       stroke="#222222"
       stroke-width="2" />
    <rect
       id="svg_1"
       x="325.89853"
       y="104.17289"
       width="75.556801"
       height="72.014061"
       fill="#4a90d6"
       stroke="#222222"
       stroke-width="1.27222" />
    <path
       id="svg_3"
       d="m 550.53678,169.59443 c 0,-7.735 6.713,-14 15,-14 8.287,0 15,6.265 15,14 0,7.735 -6.713,14 -15,14 -8.287,0 -15,-6.265 -15,-14 z"
       fill="#4a90d6"
       stroke="#222222"
       stroke-width="2" />
    <path
       id="svg_5"
       d="m 487.93882,149.32673 -0.78102,57.8364"
       fill="#4a90d6"
       stroke="#222222"
       stroke-width="2.15917"
       sodipodi:nodetypes="cc" />
    <path
       id="svg_7"
       d="m 580.24573,171.47833 90.96461,82.61153"
       fill="#4a90d6"
       stroke="#222222"
       stroke-width="2"
       sodipodi:nodetypes="cc" />
    <path
       id="svg_9"
       d="M 611.64256,201.88986 591.04214,223.8342"
       fill="#4a90d6"
       stroke="#222222"
       stroke-width="0.960898" />
    <path
       id="svg_9-2"
       d="M 256.39878,218.47146 -2.2816582,219.14192"
       fill="#4a90d6"
       stroke="#222222"
       stroke-width="4.89913"
       sodipodi:nodetypes="cc" />
    <rect
       id="svg_14"
       x="473.59842"
       y="207.06958"
       width="62"
       height="39"
       fill="#4a90d6"
       stroke="#222222"
       stroke-width="2" />
    <path
       id="svg_16"
       d="m 270.45501,278.68082 60.63591,-28.17196"
       fill="#4a90d6"
       stroke="#222222"
       stroke-width="2.30131" />
    <path
       id="svg_16-2"
       d="m 358.7751,235.36423 23.19653,-62.708"
       fill="#4a90d6"
       stroke="#222222"
       stroke-width="2.30131" />
    <path
       id="svg_18"
       d="m 260.0994,268.96621 c 0,-7.735 5.146,-14 11.5,-14 6.354,0 11.5,6.265 11.5,14 0,7.735 -5.146,14 -11.5,14 -6.354,0 -11.5,-6.265 -11.5,-14 z"
       fill="#4a90d6"
       stroke="#222222"
       stroke-width="2" />
    <path
       id="svg_20"
       d="M 553.52218,159.76646 404.01421,133.68722"
       fill="#4a90d6"
       stroke="#222222"
       stroke-width="0.991914" />
    <rect
       id="svg_22"
       x="323.54672"
       y="214.22864"
       width="45"
       height="47"
       fill="#4a90d6"
       stroke="#222222"
       stroke-width="2" />
    <path
       id="svg_24"
       d="M 4.7660867,270.75008 262.21444,271.09009"
       fill="#4a90d6"
       stroke="#222222"
       stroke-width="1.43903" />
    <path
       id="svg_28"
       d="m 254.99872,308.56566 18.06936,-33.9679"
       fill="#4a90d6"
       stroke="#222222"
       stroke-width="2" />
    <path
       id="svg_28-1"
       d="M 272.61852,256.58655 247.61814,217.59698"
       fill="#4a90d6"
       stroke="#222222"
       stroke-width="2.337" />
    <text
       xml:space="preserve"
       id="text2"
       style="writing-mode:lr-tb;direction:ltr;white-space:pre;shape-inside:url(#rect2);shape-padding:0;display:inline;fill:#000000"
       transform="matrix(1.1874435,0,0,1.3234279,-89.47568,-79.061227)"><tspan
         x="476.18359"
         y="229.4478"
         id="tspan5">PIEDRA </tspan><tspan
         x="476.18359"
         y="244.4478"
         id="tspan6">LAVAR</tspan></text>
    <text
       xml:space="preserve"
       id="text3"
       style="writing-mode:lr-tb;direction:ltr;white-space:pre;shape-inside:url(#rect3);display:inline;fill:#000000"
       transform="translate(48.667992,19.085487)"><tspan
         x="282.46484"
         y="73.900924"
         id="tspan7">MURO</tspan></text>
    <text
       xml:space="preserve"
       id="text3-1"
       style="writing-mode:lr-tb;direction:ltr;white-space:pre;shape-inside:url(#rect3-2);display:inline;fill:#000000"
       transform="translate(48.233975,51.244408)"><tspan
         x="282.46484"
         y="73.900924"
         id="tspan8">CAJA VIENE
</tspan><tspan
         x="282.46484"
         y="88.900924"
         id="tspan9">TERRAZA</tspan></text>
    <text
       xml:space="preserve"
       id="text3-2"
       style="writing-mode:lr-tb;direction:ltr;white-space:pre;shape-inside:url(#rect3-1);display:inline;fill:#000000"
       transform="translate(74.279701,351.65793)"><tspan
         x="282.46484"
         y="73.900924"
         id="tspan10">MURO</tspan></text>
    <text
       xml:space="preserve"
       id="text3-5"
       style="writing-mode:lr-tb;direction:ltr;white-space:pre;shape-inside:url(#rect3-4);shape-padding:0;display:inline;fill:#000000"
       transform="translate(-37.879345,40.793116)"><tspan
         x="282.46484"
         y="73.900924"
         id="tspan11">GRADAS A </tspan><tspan
         x="282.46484"
         y="88.900924"
         id="tspan12">TERRAZA</tspan></text>
    <text
       xml:space="preserve"
       id="text4"
       style="writing-mode:lr-tb;direction:ltr;white-space:pre;shape-inside:url(#rect4);display:inline;fill:#000000"
       transform="translate(16.222663,8.5884689)"><tspan
         x="309.18555"
         y="224.67631"
         id="tspan13">CAJA </tspan><tspan
         x="309.18555"
         y="239.67631"
         id="tspan14">ESCONDIDA</tspan></text>
  </g>
</svg>
